<?xml version="1.0" encoding="UTF-8" standalone="no"?>
<!DOCTYPE svg PUBLIC "-//W3C//DTD SVG 1.1//EN" "http://www.w3.org/Graphics/SVG/1.1/DTD/svg11.dtd">
<svg width="100%" height="100%" viewBox="0 0 1081 1081" version="1.1" xmlns="http://www.w3.org/2000/svg" xmlns:xlink="http://www.w3.org/1999/xlink" xml:space="preserve" xmlns:serif="http://www.serif.com/" style="fill-rule:evenodd;clip-rule:evenodd;stroke-linejoin:round;stroke-miterlimit:2;">
    <g transform="matrix(1.0022,0,0,1,14.5164,18.8749)">
        <path d="M359.5,332C485.061,332 587,434.163 587,560C587,685.837 485.061,788 359.5,788C233.939,788 132,685.837 132,560C132,434.163 233.939,332 359.5,332ZM359.5,377.6C459.949,377.6 541.5,459.331 541.5,560C541.5,660.669 459.949,742.4 359.5,742.4C259.051,742.4 177.5,660.669 177.5,560C177.5,459.331 259.051,377.6 359.5,377.6Z" style="fill:white;"/>
    </g>
    <g transform="matrix(1,0,0,1.17666,2.60481,-134.416)">
        <path d="M784.199,760.31L369.567,761.199L369.567,799.977L792.03,797.884L784.199,760.31Z" style="fill:white;"/>
    </g>
    <g transform="matrix(1,0,0,1,2.60481,0.0573408)">
        <path d="M238.286,276.564C235.704,273.871 231.933,272.674 228.271,273.383C224.609,274.093 221.557,276.613 220.168,280.075C220.168,280.075 205.672,316.245 198.835,347.589C195.606,362.395 194.238,376.248 196.04,385.545C201.603,414.252 229.426,433.041 258.133,427.478C286.84,421.915 305.629,394.092 300.066,365.385C298.265,356.088 291.821,343.749 283.295,331.222C265.244,304.701 238.286,276.564 238.286,276.564ZM244.733,307.377C242.15,304.686 238.378,303.49 234.716,304.202C231.055,304.913 228.005,307.435 226.618,310.898C226.618,310.898 218.864,330.296 215.208,347.102C213.343,355.677 212.685,363.71 213.732,369.093C217.205,386.961 234.532,398.648 252.4,395.175C270.268,391.702 281.955,374.375 278.482,356.507C277.435,351.124 273.817,343.922 268.875,336.67C259.189,322.457 244.733,307.377 244.733,307.377Z" style="fill:white;"/>
    </g>
    <g transform="matrix(1,0,0,1,2.60481,0.0573408)">
        <path d="M524.235,280.075C522.846,276.613 519.795,274.093 516.133,273.383C512.471,272.674 508.699,273.871 506.117,276.564C506.117,276.564 479.159,304.701 461.109,331.222C452.582,343.749 446.139,356.088 444.337,365.385C438.774,394.092 457.564,421.915 486.271,427.478C514.978,433.041 542.8,414.252 548.364,385.545C550.165,376.248 548.798,362.395 545.568,347.589C538.731,316.245 524.235,280.075 524.235,280.075ZM517.809,311.823C516.422,308.361 513.372,305.839 509.71,305.127C506.049,304.415 502.276,305.611 499.693,308.302C499.693,308.302 485.237,323.383 475.552,337.595C470.61,344.847 466.991,352.049 465.945,357.432C462.472,375.301 474.158,392.627 492.027,396.1C509.895,399.574 527.222,387.887 530.695,370.019C531.741,364.635 531.084,356.602 529.218,348.027C525.562,331.221 517.809,311.823 517.809,311.823Z" style="fill:white;"/>
    </g>
    <g transform="matrix(0.805556,0,0,0.676056,151.667,250.735)">
        <path d="M277,490.194C291.404,481.829 308.757,485.041 318.9,494.543C332.786,507.551 337.034,533.333 323.265,559.334C316.451,572.7 299.954,586.88 285.701,595.781C280.252,599.184 273.748,599.184 268.299,595.781C254.024,586.866 237.497,572.655 230.765,559.391C216.962,533.362 221.207,507.558 235.1,494.543C245.243,485.041 262.596,481.829 277,490.194Z" style="fill:white;"/>
    </g>
    <g transform="matrix(0.712286,0.196579,-0.162313,0.588128,386.572,106.41)">
        <path d="M772.451,928.175C865.725,903.335 930,824.118 930,734C930,622.438 832.622,532 712.5,532L712.5,602.7C790.579,602.7 853.875,661.485 853.875,734C853.875,792.576 812.096,844.068 751.468,860.214L772.451,928.175Z" style="fill:white;"/>
    </g>
    <g transform="matrix(0.712286,0.196579,-0.162313,0.588128,441.747,-89.4847)">
        <path d="M768.793,538.883C750.433,534.314 731.508,532 712.5,532C592.458,532 495,622.513 495,734C495,845.562 592.378,936 712.5,936L712.5,865.3C634.421,865.3 571.125,806.515 571.125,734C571.125,661.534 634.473,602.7 712.5,602.7C724.855,602.7 737.157,604.204 749.091,607.174L768.793,538.883Z" style="fill:white;"/>
    </g>
</svg>
